<?xml version="1.0" encoding="UTF-8"?>
<svg version="1.1" xmlns="http://www.w3.org/2000/svg" width="280" height="280">
<path d="M0 0 C73.59 0 147.18 0 223 0 C223.20165675 66.13893121 223.20165675 66.13893121 223.24414062 93.75976562 C223.25392974 100.08178777 223.26403208 106.40380929 223.2746582 112.72583008 C223.27663632 113.91434613 223.27663632 113.91434613 223.2786544 115.1268726 C223.30039105 127.91266084 223.33980462 140.69833646 223.38576398 153.48405796 C223.4325493 166.60918842 223.46029977 179.73426 223.47044247 192.85947043 C223.47729736 200.95613356 223.49893449 209.05247847 223.53958233 217.14904363 C223.56917839 223.3613055 223.57226889 229.57332561 223.56553841 235.78564835 C223.56691352 238.331341 223.57685341 240.87704574 223.59602737 243.42266655 C223.62094296 246.90131389 223.61490896 250.37860513 223.60127258 253.85728455 C223.62311889 255.36461313 223.62311889 255.36461313 223.64540654 256.9023928 C223.56683823 264.32906267 221.65675864 270.16494647 216.45107919 275.62444252 C211.56320219 279.89044376 207.46305937 280.15083797 201.25215149 280.16062927 C200.45485648 280.16571709 199.65756147 280.17080491 198.836106 280.17604691 C196.1554689 280.1917852 193.47485878 280.2003001 190.79418945 280.20874023 C188.87571542 280.21827758 186.95724311 280.22816869 185.03877258 280.23838806 C178.73029627 280.26978668 172.42180671 280.29004123 166.11328125 280.30859375 C165.04017063 280.31189107 163.96706001 280.31518839 162.86143088 280.31858563 C152.74177377 280.34936667 142.6221137 280.37607551 132.50242329 280.39300442 C119.5567372 280.41491441 106.61146569 280.45689223 93.66594535 280.52644199 C84.56435125 280.57368056 75.46286902 280.5979378 66.36115617 280.6052013 C60.92475244 280.6101577 55.48881588 280.62523793 50.05254555 280.6649456 C44.93637653 280.70182253 39.82094131 280.710218 34.70466423 280.69693947 C32.82936288 280.6969934 30.95402893 280.70728244 29.07884979 280.7286911 C11.95524929 280.91370011 11.95524929 280.91370011 6.32524395 275.59927464 C2.39042123 270.85081895 -0.12604191 266.83071296 -0.12304783 260.4922533 C-0.12503888 259.56318033 -0.12702993 258.63410736 -0.12908131 257.67688066 C-0.12471205 256.1433365 -0.12471205 256.1433365 -0.12025452 254.57881165 C-0.12110894 253.494107 -0.12196337 252.40940235 -0.12284368 251.29182786 C-0.12449737 247.63895269 -0.11897888 243.98612293 -0.11352539 240.33325195 C-0.11324347 237.72200522 -0.11340135 235.11075841 -0.1139679 232.49951172 C-0.11449271 226.86829974 -0.11135036 221.23709934 -0.10573006 215.60589027 C-0.09760928 207.46406879 -0.09499924 199.32225291 -0.09374207 191.18042781 C-0.09155246 177.97143763 -0.08489483 164.76245362 -0.07543945 151.5534668 C-0.06626299 138.72078481 -0.05919476 125.88810452 -0.05493164 113.05541992 C-0.05466364 112.25658561 -0.05439565 111.4577513 -0.05411953 110.63470989 C-0.05204015 104.38746948 -0.05008321 98.14022903 -0.04816496 91.89298856 C-0.03872819 61.26198671 -0.01861061 30.6310003 0 0 Z " fill="#858CDD" transform="translate(27,0)"/>
<path d="M0 0 C11.55 0 23.1 0 35 0 C35 46.2 35 92.4 35 140 C23.45 140 11.9 140 0 140 C0 93.8 0 47.6 0 0 Z " fill="#FBFBFD" transform="translate(61,106)"/>
<path d="M0 0 C33.99 0 67.98 0 103 0 C103 11.22 103 22.44 103 34 C69.01 34 35.02 34 0 34 C0 22.78 0 11.56 0 0 Z " fill="#FDFDFE" transform="translate(112,212)"/>
<path d="M0 0 C11.55 0 23.1 0 35 0 C35.04010881 17.67907185 35.04010881 17.67907185 35.04882812 25.18945312 C35.05481616 30.3230085 35.06191538 35.45654612 35.07543945 40.59008789 C35.08626975 44.726794 35.09227714 48.86348108 35.09487724 53.00020027 C35.09673124 54.58192304 35.10035136 56.16364471 35.10573006 57.74535942 C35.1129424 59.95322838 35.11399086 62.16101773 35.11352539 64.36889648 C35.115746 65.62798325 35.11796661 66.88707001 35.12025452 68.18431091 C35 71 35 71 34 72 C22.78 72 11.56 72 0 72 C0 48.24 0 24.48 0 0 Z " fill="#5C46BB" transform="translate(61,34)"/>
</svg>
